<svg height="1128.0435410371952" version="1.1" width="1261.999999999996" xmlns="http://www.w3.org/2000/svg" id="svgSvg" viewBox="0 0 1261.999999999996 1128.0435410371952" style="width: 1366px; height: 1221.07px;"><desc>Created with Snap</desc><defs/><path d="M8,5 C10,2 10,2 5.67,3.6  C1.8,4.9 1.8,5.1 5.67,6.4 C10,8 10,8 8,5 z" fill="#ffffff" style=""/><path d="M2,5 C0,2 0,2 4.33,3.6  C8.2,4.9 8.2,5.1 4.33,6.4 C0,8 0,8 2,5 z" fill="#ffffff" style=""/><polyline points="550,766.0350221386135,586.0000000000082,766.0350221386135,621.9999999999959,766.0350221386135,658.0000000000041,766.0350221386135,694.0000000000123,766.0350221386135,730,766.0350221386135,766.0000000000082,766.0350221386135,801.9999999999959,766.0350221386135,838.0000000000041,766.0350221386135,874.0000000000123,766.0350221386135,910,766.0350221386135,946.0000000000082,766.0350221386135,981.9999999999959,766.0350221386135,1018.0000000000041,766.0350221386135,1054.0000000000123,766.0350221386135,1090,766.0350221386135,1126.0000000000082,766.0350221386135,1161.999999999996,766.0350221386135" fill="none" stroke="#ffffff" style="stroke-opacity: 0; stroke-width: 0; stroke-linecap: round; stroke-linejoin: round; marker-start: none; marker-end: none;"/><path d="M8,5 C10,2 10,2 5.67,3.6  C1.8,4.9 1.8,5.1 5.67,6.4 C10,8 10,8 8,5 z" fill="#ffffff" style=""/><path d="M2,5 C0,2 0,2 4.33,3.6  C8.2,4.9 8.2,5.1 4.33,6.4 C0,8 0,8 2,5 z" fill="#ffffff" style=""/><polyline points="316.0000000000082,856.0397548600478,316.0000000000082,820.037861771474,316.0000000000082,784.0359686829004,316.0000000000082,748.0340755943267,316.0000000000082,712.0321825057531,316.0000000000082,676.0302894171792,316.0000000000082,640.0283963286057,316.0000000000082,604.0265032400318,316.0000000000082,568.0246101514583,316.0000000000082,532.0227170628846,316.0000000000082,496.0208239743108,316.0000000000082,460.01893088573706,316.0000000000082,424.01703779716337,316.0000000000082,388.01514470858973,316.0000000000082,352.013251620016,316.0000000000082,316.0113585314423,316.0000000000082,280.00946544286853,316.0000000000082,244.00757235429492,316.0000000000082,208.0056792657212,316.0000000000082,172.00378617714745,316.0000000000082,136.00189308857372,316.0000000000082,100,316.0000000000082,928.0435410371953,100,928.0435410371953" fill="none" stroke="#ffffff" style="stroke-opacity: 0; stroke-width: 0; stroke-linecap: round; stroke-linejoin: round; marker-start: none; marker-end: none;"/><path d="M8,5 C10,2 10,2 5.67,3.6  C1.8,4.9 1.8,5.1 5.67,6.4 C10,8 10,8 8,5 z" fill="#800050" style=""/><path d="M2,5 C0,2 0,2 4.33,3.6  C8.2,4.9 8.2,5.1 4.33,6.4 C0,8 0,8 2,5 z" fill="#800050" style=""/><polyline points="437.5,604.0265032400318,514.0000000000123,626.5276864203904,586.0000000000082,626.5276864203904,694.0000000000123,626.5276864203904,766.0000000000082,626.5276864203904,801.9999999999959,626.5276864203904,946.0000000000082,626.5276864203904,1090,626.5276864203904,1161.999999999996,626.5276864203904" fill="none" stroke="#800050" style="stroke-opacity: 1; stroke-width: 10; stroke-linecap: round; stroke-linejoin: round; marker-start: none; marker-end: none;"/><path d="M8,5 C10,2 10,2 5.67,3.6  C1.8,4.9 1.8,5.1 5.67,6.4 C10,8 10,8 8,5 z" fill="#000000" style=""/><path d="M2,5 C0,2 0,2 4.33,3.6  C8.2,4.9 8.2,5.1 4.33,6.4 C0,8 0,8 2,5 z" fill="#000000" style=""/><polyline points="424.0000000000123,604.0265032400318,514.0000000000123,640.0283963286057,550,640.0283963286057,586.0000000000082,640.0283963286057,621.9999999999959,640.0283963286057,658.0000000000041,640.0283963286057,694.0000000000123,640.0283963286057,730,640.0283963286057,766.0000000000082,640.0283963286057,801.9999999999959,640.0283963286057,838.0000000000041,640.0283963286057,874.0000000000123,640.0283963286057,910,640.0283963286057,946.0000000000082,640.0283963286057,981.9999999999959,640.0283963286057,1018.0000000000041,640.0283963286057,1054.0000000000123,640.0283963286057,1090,640.0283963286057,1126.0000000000082,640.0283963286057,1161.999999999996,640.0283963286057" fill="none" stroke="#000000" style="stroke-opacity: 1; stroke-width: 10; stroke-linecap: round; stroke-linejoin: round; marker-start: none; marker-end: none;"/><path d="M8,5 C10,2 10,2 5.67,3.6  C1.8,4.9 1.8,5.1 5.67,6.4 C10,8 10,8 8,5 z" fill="#800050" style=""/><path d="M2,5 C0,2 0,2 4.33,3.6  C8.2,4.9 8.2,5.1 4.33,6.4 C0,8 0,8 2,5 z" fill="#800050" style=""/><polyline points="437.5,856.0397548600478,437.5,676.0302894171792,437.5,604.0265032400318,437.5,532.0227170628846,437.5,424.01703779716337,437.5,352.013251620016,437.5,208.0056792657212,437.5,172.00378617714745,437.5,100" fill="none" stroke="#800050" style="stroke-opacity: 1; stroke-width: 10; stroke-linecap: round; stroke-linejoin: round; marker-start: none; marker-end: none;"/><path d="M8,5 C10,2 10,2 5.67,3.6  C1.8,4.9 1.8,5.1 5.67,6.4 C10,8 10,8 8,5 z" fill="#000000" style=""/><path d="M2,5 C0,2 0,2 4.33,3.6  C8.2,4.9 8.2,5.1 4.33,6.4 C0,8 0,8 2,5 z" fill="#000000" style=""/><polyline points="424.0000000000123,856.0397548600478,424.0000000000123,820.037861771474,424.0000000000123,784.0359686829004,424.0000000000123,748.0340755943267,424.0000000000123,712.0321825057531,424.0000000000123,676.0302894171792,424.0000000000123,640.0283963286057,424.0000000000123,604.0265032400318,424.0000000000123,568.0246101514583,424.0000000000123,532.0227170628846,424.0000000000123,496.0208239743108,424.0000000000123,460.01893088573706,424.0000000000123,424.01703779716337,424.0000000000123,388.01514470858973,424.0000000000123,352.013251620016,424.0000000000123,316.0113585314423,424.0000000000123,280.00946544286853,424.0000000000123,244.00757235429492,424.0000000000123,208.0056792657212,424.0000000000123,172.00378617714745,424.0000000000123,136.00189308857372,424.0000000000123,100" fill="none" stroke="#000000" style="stroke-opacity: 1; stroke-width: 10; stroke-linecap: round; stroke-linejoin: round; marker-start: none; marker-end: none;"/><circle cx="550" cy="766.0350221386135" r="2" fill="#ffffff" stroke="#ffffff" style="stroke-width: 0; fill-opacity: 1;"/><circle cx="586.0000000000082" cy="766.0350221386135" r="2" fill="#ffffff" stroke="#ffffff" style="stroke-width: 0; fill-opacity: 1;"/><circle cx="621.9999999999959" cy="766.0350221386135" r="2" fill="#ffffff" stroke="#ffffff" style="stroke-width: 0; fill-opacity: 1;"/><circle cx="658.0000000000041" cy="766.0350221386135" r="2" fill="#ffffff" stroke="#ffffff" style="stroke-width: 0; fill-opacity: 1;"/><circle cx="694.0000000000123" cy="766.0350221386135" r="2" fill="#ffffff" stroke="#ffffff" style="stroke-width: 0; fill-opacity: 1;"/><circle cx="730" cy="766.0350221386135" r="2" fill="#ffffff" stroke="#ffffff" style="stroke-width: 0; fill-opacity: 1;"/><circle cx="766.0000000000082" cy="766.0350221386135" r="2" fill="#ffffff" stroke="#ffffff" style="stroke-width: 0; fill-opacity: 1;"/><circle cx="801.9999999999959" cy="766.0350221386135" r="2" fill="#ffffff" stroke="#ffffff" style="stroke-width: 0; fill-opacity: 1;"/><circle cx="838.0000000000041" cy="766.0350221386135" r="2" fill="#ffffff" stroke="#ffffff" style="stroke-width: 0; fill-opacity: 1;"/><circle cx="874.0000000000123" cy="766.0350221386135" r="2" fill="#ffffff" stroke="#ffffff" style="stroke-width: 0; fill-opacity: 1;"/><circle cx="910" cy="766.0350221386135" r="2" fill="#ffffff" stroke="#ffffff" style="stroke-width: 0; fill-opacity: 1;"/><circle cx="946.0000000000082" cy="766.0350221386135" r="2" fill="#ffffff" stroke="#ffffff" style="stroke-width: 0; fill-opacity: 1;"/><circle cx="981.9999999999959" cy="766.0350221386135" r="2" fill="#ffffff" stroke="#ffffff" style="stroke-width: 0; fill-opacity: 1;"/><circle cx="1018.0000000000041" cy="766.0350221386135" r="2" fill="#ffffff" stroke="#ffffff" style="stroke-width: 0; fill-opacity: 1;"/><circle cx="1054.0000000000123" cy="766.0350221386135" r="2" fill="#ffffff" stroke="#ffffff" style="stroke-width: 0; fill-opacity: 1;"/><circle cx="1090" cy="766.0350221386135" r="2" fill="#ffffff" stroke="#ffffff" style="stroke-width: 0; fill-opacity: 1;"/><circle cx="1126.0000000000082" cy="766.0350221386135" r="2" fill="#ffffff" stroke="#ffffff" style="stroke-width: 0; fill-opacity: 1;"/><circle cx="1161.999999999996" cy="766.0350221386135" r="2" fill="#ffffff" stroke="#ffffff" style="stroke-width: 0; fill-opacity: 1;"/><circle cx="316.0000000000082" cy="856.0397548600478" r="2" fill="#ffffff" stroke="#ffffff" style="stroke-width: 0; fill-opacity: 1;"/><circle cx="316.0000000000082" cy="820.037861771474" r="2" fill="#ffffff" stroke="#ffffff" style="stroke-width: 0; fill-opacity: 1;"/><circle cx="316.0000000000082" cy="784.0359686829004" r="2" fill="#ffffff" stroke="#ffffff" style="stroke-width: 0; fill-opacity: 1;"/><circle cx="316.0000000000082" cy="748.0340755943267" r="2" fill="#ffffff" stroke="#ffffff" style="stroke-width: 0; fill-opacity: 1;"/><circle cx="316.0000000000082" cy="712.0321825057531" r="2" fill="#ffffff" stroke="#ffffff" style="stroke-width: 0; fill-opacity: 1;"/><circle cx="316.0000000000082" cy="676.0302894171792" r="2" fill="#ffffff" stroke="#ffffff" style="stroke-width: 0; fill-opacity: 1;"/><circle cx="316.0000000000082" cy="640.0283963286057" r="2" fill="#ffffff" stroke="#ffffff" style="stroke-width: 0; fill-opacity: 1;"/><circle cx="316.0000000000082" cy="604.0265032400318" r="2" fill="#ffffff" stroke="#ffffff" style="stroke-width: 0; fill-opacity: 1;"/><circle cx="316.0000000000082" cy="568.0246101514583" r="2" fill="#ffffff" stroke="#ffffff" style="stroke-width: 0; fill-opacity: 1;"/><circle cx="316.0000000000082" cy="532.0227170628846" r="2" fill="#ffffff" stroke="#ffffff" style="stroke-width: 0; fill-opacity: 1;"/><circle cx="316.0000000000082" cy="496.0208239743108" r="2" fill="#ffffff" stroke="#ffffff" style="stroke-width: 0; fill-opacity: 1;"/><circle cx="316.0000000000082" cy="460.01893088573706" r="2" fill="#ffffff" stroke="#ffffff" style="stroke-width: 0; fill-opacity: 1;"/><circle cx="316.0000000000082" cy="424.01703779716337" r="2" fill="#ffffff" stroke="#ffffff" style="stroke-width: 0; fill-opacity: 1;"/><circle cx="316.0000000000082" cy="388.01514470858973" r="2" fill="#ffffff" stroke="#ffffff" style="stroke-width: 0; fill-opacity: 1;"/><circle cx="316.0000000000082" cy="352.013251620016" r="2" fill="#ffffff" stroke="#ffffff" style="stroke-width: 0; fill-opacity: 1;"/><circle cx="316.0000000000082" cy="316.0113585314423" r="2" fill="#ffffff" stroke="#ffffff" style="stroke-width: 0; fill-opacity: 1;"/><circle cx="316.0000000000082" cy="280.00946544286853" r="2" fill="#ffffff" stroke="#ffffff" style="stroke-width: 0; fill-opacity: 1;"/><circle cx="316.0000000000082" cy="244.00757235429492" r="2" fill="#ffffff" stroke="#ffffff" style="stroke-width: 0; fill-opacity: 1;"/><circle cx="316.0000000000082" cy="208.0056792657212" r="2" fill="#ffffff" stroke="#ffffff" style="stroke-width: 0; fill-opacity: 1;"/><circle cx="316.0000000000082" cy="172.00378617714745" r="2" fill="#ffffff" stroke="#ffffff" style="stroke-width: 0; fill-opacity: 1;"/><circle cx="316.0000000000082" cy="136.00189308857372" r="2" fill="#ffffff" stroke="#ffffff" style="stroke-width: 0; fill-opacity: 1;"/><circle cx="316.0000000000082" cy="100" r="2" fill="#ffffff" stroke="#ffffff" style="stroke-width: 0; fill-opacity: 1;"/><circle cx="437.5" cy="604.0265032400318" r="3" fill="#ffffff" stroke="#ffffff" style="stroke-width: 1; fill-opacity: 1;"/><circle cx="586.0000000000082" cy="626.5276864203904" r="3" fill="#ffffff" stroke="#ffffff" style="stroke-width: 1; fill-opacity: 1;"/><circle cx="694.0000000000123" cy="626.5276864203904" r="3" fill="#ffffff" stroke="#ffffff" style="stroke-width: 1; fill-opacity: 1;"/><circle cx="766.0000000000082" cy="626.5276864203904" r="3" fill="#ffffff" stroke="#ffffff" style="stroke-width: 1; fill-opacity: 1;"/><circle cx="801.9999999999959" cy="626.5276864203904" r="3" fill="#ffffff" stroke="#ffffff" style="stroke-width: 1; fill-opacity: 1;"/><circle cx="946.0000000000082" cy="626.5276864203904" r="3" fill="#ffffff" stroke="#ffffff" style="stroke-width: 1; fill-opacity: 1;"/><circle cx="1090" cy="626.5276864203904" r="3" fill="#ffffff" stroke="#ffffff" style="stroke-width: 1; fill-opacity: 1;"/><circle cx="1161.999999999996" cy="626.5276864203904" r="3" fill="#ffffff" stroke="#ffffff" style="stroke-width: 1; fill-opacity: 1;"/><circle cx="550" cy="640.0283963286057" r="3" fill="#ffffff" stroke="#ffffff" style="stroke-width: 1; fill-opacity: 1;"/><circle cx="586.0000000000082" cy="640.0283963286057" r="3" fill="#ffffff" stroke="#ffffff" style="stroke-width: 1; fill-opacity: 1;"/><circle cx="621.9999999999959" cy="640.0283963286057" r="3" fill="#ffffff" stroke="#ffffff" style="stroke-width: 1; fill-opacity: 1;"/><circle cx="658.0000000000041" cy="640.0283963286057" r="3" fill="#ffffff" stroke="#ffffff" style="stroke-width: 1; fill-opacity: 1;"/><circle cx="694.0000000000123" cy="640.0283963286057" r="3" fill="#ffffff" stroke="#ffffff" style="stroke-width: 1; fill-opacity: 1;"/><circle cx="730" cy="640.0283963286057" r="3" fill="#ffffff" stroke="#ffffff" style="stroke-width: 1; fill-opacity: 1;"/><circle cx="766.0000000000082" cy="640.0283963286057" r="3" fill="#ffffff" stroke="#ffffff" style="stroke-width: 1; fill-opacity: 1;"/><circle cx="801.9999999999959" cy="640.0283963286057" r="3" fill="#ffffff" stroke="#ffffff" style="stroke-width: 1; fill-opacity: 1;"/><circle cx="838.0000000000041" cy="640.0283963286057" r="3" fill="#ffffff" stroke="#ffffff" style="stroke-width: 1; fill-opacity: 1;"/><circle cx="874.0000000000123" cy="640.0283963286057" r="3" fill="#ffffff" stroke="#ffffff" style="stroke-width: 1; fill-opacity: 1;"/><circle cx="910" cy="640.0283963286057" r="3" fill="#ffffff" stroke="#ffffff" style="stroke-width: 1; fill-opacity: 1;"/><circle cx="946.0000000000082" cy="640.0283963286057" r="3" fill="#ffffff" stroke="#ffffff" style="stroke-width: 1; fill-opacity: 1;"/><circle cx="981.9999999999959" cy="640.0283963286057" r="3" fill="#ffffff" stroke="#ffffff" style="stroke-width: 1; fill-opacity: 1;"/><circle cx="1018.0000000000041" cy="640.0283963286057" r="3" fill="#ffffff" stroke="#ffffff" style="stroke-width: 1; fill-opacity: 1;"/><circle cx="1054.0000000000123" cy="640.0283963286057" r="3" fill="#ffffff" stroke="#ffffff" style="stroke-width: 1; fill-opacity: 1;"/><circle cx="1090" cy="640.0283963286057" r="3" fill="#ffffff" stroke="#ffffff" style="stroke-width: 1; fill-opacity: 1;"/><circle cx="1126.0000000000082" cy="640.0283963286057" r="3" fill="#ffffff" stroke="#ffffff" style="stroke-width: 1; fill-opacity: 1;"/><circle cx="1161.999999999996" cy="640.0283963286057" r="3" fill="#ffffff" stroke="#ffffff" style="stroke-width: 1; fill-opacity: 1;"/><circle cx="437.5" cy="856.0397548600478" r="3" fill="#ffffff" stroke="#ffffff" style="stroke-width: 1; fill-opacity: 1;"/><circle cx="437.5" cy="676.0302894171792" r="3" fill="#ffffff" stroke="#ffffff" style="stroke-width: 1; fill-opacity: 1;"/><circle cx="437.5" cy="604.0265032400318" r="3" fill="#ffffff" stroke="#ffffff" style="stroke-width: 1; fill-opacity: 1;"/><circle cx="437.5" cy="532.0227170628846" r="3" fill="#ffffff" stroke="#ffffff" style="stroke-width: 1; fill-opacity: 1;"/><circle cx="437.5" cy="424.01703779716337" r="3" fill="#ffffff" stroke="#ffffff" style="stroke-width: 1; fill-opacity: 1;"/><circle cx="437.5" cy="352.013251620016" r="3" fill="#ffffff" stroke="#ffffff" style="stroke-width: 1; fill-opacity: 1;"/><circle cx="437.5" cy="208.0056792657212" r="3" fill="#ffffff" stroke="#ffffff" style="stroke-width: 1; fill-opacity: 1;"/><circle cx="437.5" cy="172.00378617714745" r="3" fill="#ffffff" stroke="#ffffff" style="stroke-width: 1; fill-opacity: 1;"/><circle cx="437.5" cy="100" r="3" fill="#ffffff" stroke="#ffffff" style="stroke-width: 1; fill-opacity: 1;"/><circle cx="424.0000000000123" cy="856.0397548600478" r="3" fill="#ffffff" stroke="#ffffff" style="stroke-width: 1; fill-opacity: 1;"/><circle cx="424.0000000000123" cy="820.037861771474" r="3" fill="#ffffff" stroke="#ffffff" style="stroke-width: 1; fill-opacity: 1;"/><circle cx="424.0000000000123" cy="784.0359686829004" r="3" fill="#ffffff" stroke="#ffffff" style="stroke-width: 1; fill-opacity: 1;"/><circle cx="424.0000000000123" cy="748.0340755943267" r="3" fill="#ffffff" stroke="#ffffff" style="stroke-width: 1; fill-opacity: 1;"/><circle cx="424.0000000000123" cy="712.0321825057531" r="3" fill="#ffffff" stroke="#ffffff" style="stroke-width: 1; fill-opacity: 1;"/><circle cx="424.0000000000123" cy="676.0302894171792" r="3" fill="#ffffff" stroke="#ffffff" style="stroke-width: 1; fill-opacity: 1;"/><circle cx="424.0000000000123" cy="640.0283963286057" r="3" fill="#ffffff" stroke="#ffffff" style="stroke-width: 1; fill-opacity: 1;"/><circle cx="424.0000000000123" cy="604.0265032400318" r="3" fill="#ffffff" stroke="#ffffff" style="stroke-width: 1; fill-opacity: 1;"/><circle cx="424.0000000000123" cy="568.0246101514583" r="3" fill="#ffffff" stroke="#ffffff" style="stroke-width: 1; fill-opacity: 1;"/><circle cx="424.0000000000123" cy="532.0227170628846" r="3" fill="#ffffff" stroke="#ffffff" style="stroke-width: 1; fill-opacity: 1;"/><circle cx="424.0000000000123" cy="496.0208239743108" r="3" fill="#ffffff" stroke="#ffffff" style="stroke-width: 1; fill-opacity: 1;"/><circle cx="424.0000000000123" cy="460.01893088573706" r="3" fill="#ffffff" stroke="#ffffff" style="stroke-width: 1; fill-opacity: 1;"/><circle cx="424.0000000000123" cy="424.01703779716337" r="3" fill="#ffffff" stroke="#ffffff" style="stroke-width: 1; fill-opacity: 1;"/><circle cx="424.0000000000123" cy="388.01514470858973" r="3" fill="#ffffff" stroke="#ffffff" style="stroke-width: 1; fill-opacity: 1;"/><circle cx="424.0000000000123" cy="352.013251620016" r="3" fill="#ffffff" stroke="#ffffff" style="stroke-width: 1; fill-opacity: 1;"/><circle cx="424.0000000000123" cy="316.0113585314423" r="3" fill="#ffffff" stroke="#ffffff" style="stroke-width: 1; fill-opacity: 1;"/><circle cx="424.0000000000123" cy="280.00946544286853" r="3" fill="#ffffff" stroke="#ffffff" style="stroke-width: 1; fill-opacity: 1;"/><circle cx="424.0000000000123" cy="244.00757235429492" r="3" fill="#ffffff" stroke="#ffffff" style="stroke-width: 1; fill-opacity: 1;"/><circle cx="424.0000000000123" cy="208.0056792657212" r="3" fill="#ffffff" stroke="#ffffff" style="stroke-width: 1; fill-opacity: 1;"/><circle cx="424.0000000000123" cy="172.00378617714745" r="3" fill="#ffffff" stroke="#ffffff" style="stroke-width: 1; fill-opacity: 1;"/><circle cx="424.0000000000123" cy="136.00189308857372" r="3" fill="#ffffff" stroke="#ffffff" style="stroke-width: 1; fill-opacity: 1;"/><circle cx="424.0000000000123" cy="100" r="3" fill="#ffffff" stroke="#ffffff" style="stroke-width: 1; fill-opacity: 1;"/><text x="550" y="786.0350221386135" fill="#000000" transform="matrix(1,0,0,1,0,0)" style="font-size: 12px; font-family: Roboto, Arial, sans-serif; font-weight: 900; text-anchor: start; writing-mode: tb; letter-spacing: -0.1em;">Mitetsuonshikōen</text><text x="586.0000000000082" y="786.0350221386135" fill="#000000" transform="matrix(1,0,0,1,0,0)" style="font-size: 12px; font-family: Roboto, Arial, sans-serif; font-weight: 900; text-anchor: start; writing-mode: tb; letter-spacing: -0.1em;">Shōjitsu</text><text x="621.9999999999959" y="786.0350221386135" fill="#000000" transform="matrix(1,0,0,1,0,0)" style="font-size: 12px; font-family: Roboto, Arial, sans-serif; font-weight: 900; text-anchor: start; writing-mode: tb; letter-spacing: -0.1em;">Agatano</text><text x="658.0000000000041" y="786.0350221386135" fill="#000000" transform="matrix(1,0,0,1,0,0)" style="font-size: 12px; font-family: Roboto, Arial, sans-serif; font-weight: 900; text-anchor: start; writing-mode: tb; letter-spacing: -0.1em;">Ōhanadōri</text><text x="694.0000000000123" y="786.0350221386135" fill="#000000" transform="matrix(1,0,0,1,0,0)" style="font-size: 12px; font-family: Roboto, Arial, sans-serif; font-weight: 900; text-anchor: start; writing-mode: tb; letter-spacing: -0.1em;">Asahidai</text><text x="730" y="786.0350221386135" fill="#000000" transform="matrix(1,0,0,1,0,0)" style="font-size: 12px; font-family: Roboto, Arial, sans-serif; font-weight: 900; text-anchor: start; writing-mode: tb; letter-spacing: -0.1em;">Nishi-rinya</text><text x="766.0000000000082" y="786.0350221386135" fill="#000000" transform="matrix(1,0,0,1,0,0)" style="font-size: 12px; font-family: Roboto, Arial, sans-serif; font-weight: 900; text-anchor: start; writing-mode: tb; letter-spacing: -0.1em;">Kokugidai-kita</text><text x="801.9999999999959" y="786.0350221386135" fill="#000000" transform="matrix(1,0,0,1,0,0)" style="font-size: 12px; font-family: Roboto, Arial, sans-serif; font-weight: 900; text-anchor: start; writing-mode: tb; letter-spacing: -0.1em;">Hiyoritakasaki</text><text x="838.0000000000041" y="786.0350221386135" fill="#000000" transform="matrix(1,0,0,1,0,0)" style="font-size: 12px; font-family: Roboto, Arial, sans-serif; font-weight: 900; text-anchor: start; writing-mode: tb; letter-spacing: -0.1em;">Tasaka</text><text x="874.0000000000123" y="786.0350221386135" fill="#000000" transform="matrix(1,0,0,1,0,0)" style="font-size: 12px; font-family: Roboto, Arial, sans-serif; font-weight: 900; text-anchor: start; writing-mode: tb; letter-spacing: -0.1em;">Sogawa</text><text x="910" y="786.0350221386135" fill="#000000" transform="matrix(1,0,0,1,0,0)" style="font-size: 12px; font-family: Roboto, Arial, sans-serif; font-weight: 900; text-anchor: start; writing-mode: tb; letter-spacing: -0.1em;">Nishi-hekine</text><text x="946.0000000000082" y="786.0350221386135" fill="#000000" transform="matrix(1,0,0,1,0,0)" style="font-size: 12px; font-family: Roboto, Arial, sans-serif; font-weight: 900; text-anchor: start; writing-mode: tb; letter-spacing: -0.1em;">Satsuhan-hekine</text><text x="981.9999999999959" y="786.0350221386135" fill="#000000" transform="matrix(1,0,0,1,0,0)" style="font-size: 12px; font-family: Roboto, Arial, sans-serif; font-weight: 900; text-anchor: start; writing-mode: tb; letter-spacing: -0.1em;">Higashi-hekine</text><text x="1018.0000000000041" y="786.0350221386135" fill="#000000" transform="matrix(1,0,0,1,0,0)" style="font-size: 12px; font-family: Roboto, Arial, sans-serif; font-weight: 900; text-anchor: start; writing-mode: tb; letter-spacing: -0.1em;">Jinno</text><text x="1054.0000000000123" y="786.0350221386135" fill="#000000" transform="matrix(1,0,0,1,0,0)" style="font-size: 12px; font-family: Roboto, Arial, sans-serif; font-weight: 900; text-anchor: start; writing-mode: tb; letter-spacing: -0.1em;">Mitsunami</text><text x="1090" y="786.0350221386135" fill="#000000" transform="matrix(1,0,0,1,0,0)" style="font-size: 12px; font-family: Roboto, Arial, sans-serif; font-weight: 900; text-anchor: start; writing-mode: tb; letter-spacing: -0.1em;">Tokui</text><text x="1126.0000000000082" y="786.0350221386135" fill="#000000" transform="matrix(1,0,0,1,0,0)" style="font-size: 12px; font-family: Roboto, Arial, sans-serif; font-weight: 900; text-anchor: start; writing-mode: tb; letter-spacing: -0.1em;">Tokuisakaue</text><text x="1161.999999999996" y="786.0350221386135" fill="#000000" transform="matrix(1,0,0,1,0,0)" style="font-size: 12px; font-family: Roboto, Arial, sans-serif; font-weight: 900; text-anchor: start; writing-mode: tb; letter-spacing: -0.1em;">Yomikomi</text><text x="296.0000000000082" y="859.0397548600478" fill="#000000" transform="matrix(1,0,0,1,0,0)" style="font-size: 12px; font-family: Roboto, Arial, sans-serif; font-weight: 900; text-anchor: end; letter-spacing: 0em;">Satsuhan-tanjin</text><text x="296.0000000000082" y="823.037861771474" fill="#000000" transform="matrix(1,0,0,1,0,0)" style="font-size: 12px; font-family: Roboto, Arial, sans-serif; font-weight: 900; text-anchor: end; letter-spacing: 0em;">Tanjinkōen</text><text x="296.0000000000082" y="787.0359686829004" fill="#000000" transform="matrix(1,0,0,1,0,0)" style="font-size: 12px; font-family: Roboto, Arial, sans-serif; font-weight: 900; text-anchor: end; letter-spacing: 0em;">Kita-tanjin</text><text x="296.0000000000082" y="751.0340755943267" fill="#000000" transform="matrix(1,0,0,1,0,0)" style="font-size: 12px; font-family: Roboto, Arial, sans-serif; font-weight: 900; text-anchor: end; letter-spacing: 0em;">Oi</text><text x="296.0000000000082" y="715.0321825057531" fill="#000000" transform="matrix(1,0,0,1,0,0)" style="font-size: 12px; font-family: Roboto, Arial, sans-serif; font-weight: 900; text-anchor: end; letter-spacing: 0em;">Kokuna-Shinchō</text><text x="296.0000000000082" y="679.0302894171792" fill="#000000" transform="matrix(1,0,0,1,0,0)" style="font-size: 12px; font-family: Roboto, Arial, sans-serif; font-weight: 900; text-anchor: end; letter-spacing: 0em;">Aosaki</text><text x="296.0000000000082" y="643.0283963286057" fill="#000000" transform="matrix(1,0,0,1,0,0)" style="font-size: 12px; font-family: Roboto, Arial, sans-serif; font-weight: 900; text-anchor: end; letter-spacing: 0em;">Shizumichō</text><text x="296.0000000000082" y="607.0265032400318" fill="#000000" transform="matrix(1,0,0,1,0,0)" style="font-size: 12px; font-family: Roboto, Arial, sans-serif; font-weight: 900; text-anchor: end; letter-spacing: 0em;">Mitetsunoyoshi</text><text x="296.0000000000082" y="571.0246101514583" fill="#000000" transform="matrix(1,0,0,1,0,0)" style="font-size: 12px; font-family: Roboto, Arial, sans-serif; font-weight: 900; text-anchor: end; letter-spacing: 0em;">Shōmi</text><text x="296.0000000000082" y="535.0227170628846" fill="#000000" transform="matrix(1,0,0,1,0,0)" style="font-size: 12px; font-family: Roboto, Arial, sans-serif; font-weight: 900; text-anchor: end; letter-spacing: 0em;">Mizore-Shōmi</text><text x="296.0000000000082" y="499.0208239743108" fill="#000000" transform="matrix(1,0,0,1,0,0)" style="font-size: 12px; font-family: Roboto, Arial, sans-serif; font-weight: 900; text-anchor: end; letter-spacing: 0em;">Karaki</text><text x="296.0000000000082" y="463.01893088573706" fill="#000000" transform="matrix(1,0,0,1,0,0)" style="font-size: 12px; font-family: Roboto, Arial, sans-serif; font-weight: 900; text-anchor: end; letter-spacing: 0em;">Konara</text><text x="296.0000000000082" y="427.01703779716337" fill="#000000" transform="matrix(1,0,0,1,0,0)" style="font-size: 12px; font-family: Roboto, Arial, sans-serif; font-weight: 900; text-anchor: end; letter-spacing: 0em;">Nonokuma</text><text x="296.0000000000082" y="391.01514470858973" fill="#000000" transform="matrix(1,0,0,1,0,0)" style="font-size: 12px; font-family: Roboto, Arial, sans-serif; font-weight: 900; text-anchor: end; letter-spacing: 0em;">Ōnoankyo</text><text x="296.0000000000082" y="355.013251620016" fill="#000000" transform="matrix(1,0,0,1,0,0)" style="font-size: 12px; font-family: Roboto, Arial, sans-serif; font-weight: 900; text-anchor: end; letter-spacing: 0em;">Haritsuka</text><text x="296.0000000000082" y="319.0113585314423" fill="#000000" transform="matrix(1,0,0,1,0,0)" style="font-size: 12px; font-family: Roboto, Arial, sans-serif; font-weight: 900; text-anchor: end; letter-spacing: 0em;">Kita-haritsuka</text><text x="296.0000000000082" y="283.00946544286853" fill="#000000" transform="matrix(1,0,0,1,0,0)" style="font-size: 12px; font-family: Roboto, Arial, sans-serif; font-weight: 900; text-anchor: end; letter-spacing: 0em;">Kokuna-Shinden</text><text x="296.0000000000082" y="247.00757235429492" fill="#000000" transform="matrix(1,0,0,1,0,0)" style="font-size: 12px; font-family: Roboto, Arial, sans-serif; font-weight: 900; text-anchor: end; letter-spacing: 0em;">Shinden-kita</text><text x="296.0000000000082" y="211.0056792657212" fill="#000000" transform="matrix(1,0,0,1,0,0)" style="font-size: 12px; font-family: Roboto, Arial, sans-serif; font-weight: 900; text-anchor: end; letter-spacing: 0em;">Runa-Ōyōdai</text><text x="296.0000000000082" y="175.00378617714745" fill="#000000" transform="matrix(1,0,0,1,0,0)" style="font-size: 12px; font-family: Roboto, Arial, sans-serif; font-weight: 900; text-anchor: end; letter-spacing: 0em;">Runa</text><text x="296.0000000000082" y="139.00189308857372" fill="#000000" transform="matrix(1,0,0,1,0,0)" style="font-size: 12px; font-family: Roboto, Arial, sans-serif; font-weight: 900; text-anchor: end; letter-spacing: 0em;">Oridai</text><text x="296.0000000000082" y="103" fill="#000000" transform="matrix(1,0,0,1,0,0)" style="font-size: 12px; font-family: Roboto, Arial, sans-serif; font-weight: 900; text-anchor: end; letter-spacing: 0em;">Kibuka</text><text x="550" y="660.0283963286057" fill="#000000" transform="matrix(1,0,0,1,0,0)" style="font-size: 18px; font-family: Roboto, Arial, sans-serif; font-weight: 900; text-anchor: start; writing-mode: tb; letter-spacing: -0.1em;">御鉄恩賜公園</text><text x="586.0000000000082" y="660.0283963286057" fill="#000000" transform="matrix(1,0,0,1,0,0)" style="font-size: 18px; font-family: Roboto, Arial, sans-serif; font-weight: 900; text-anchor: start; writing-mode: tb; letter-spacing: -0.1em;">商実</text><text x="621.9999999999959" y="660.0283963286057" fill="#000000" transform="matrix(1,0,0,1,0,0)" style="font-size: 18px; font-family: Roboto, Arial, sans-serif; font-weight: 900; text-anchor: start; writing-mode: tb; letter-spacing: -0.1em;">あがた野</text><text x="658.0000000000041" y="660.0283963286057" fill="#000000" transform="matrix(1,0,0,1,0,0)" style="font-size: 18px; font-family: Roboto, Arial, sans-serif; font-weight: 900; text-anchor: start; writing-mode: tb; letter-spacing: -0.1em;">大花通り</text><text x="694.0000000000123" y="660.0283963286057" fill="#000000" transform="matrix(1,0,0,1,0,0)" style="font-size: 18px; font-family: Roboto, Arial, sans-serif; font-weight: 900; text-anchor: start; writing-mode: tb; letter-spacing: -0.1em;">朝陽台</text><text x="730" y="660.0283963286057" fill="#000000" transform="matrix(1,0,0,1,0,0)" style="font-size: 18px; font-family: Roboto, Arial, sans-serif; font-weight: 900; text-anchor: start; writing-mode: tb; letter-spacing: -0.1em;">西林野</text><text x="766.0000000000082" y="660.0283963286057" fill="#000000" transform="matrix(1,0,0,1,0,0)" style="font-size: 18px; font-family: Roboto, Arial, sans-serif; font-weight: 900; text-anchor: start; writing-mode: tb; letter-spacing: -0.1em;">国城大北</text><text x="801.9999999999959" y="660.0283963286057" fill="#000000" transform="matrix(1,0,0,1,0,0)" style="font-size: 18px; font-family: Roboto, Arial, sans-serif; font-weight: 900; text-anchor: start; writing-mode: tb; letter-spacing: -0.1em;">日和髙崎</text><text x="838.0000000000041" y="660.0283963286057" fill="#000000" transform="matrix(1,0,0,1,0,0)" style="font-size: 18px; font-family: Roboto, Arial, sans-serif; font-weight: 900; text-anchor: start; writing-mode: tb; letter-spacing: -0.1em;">田坂</text><text x="874.0000000000123" y="660.0283963286057" fill="#000000" transform="matrix(1,0,0,1,0,0)" style="font-size: 18px; font-family: Roboto, Arial, sans-serif; font-weight: 900; text-anchor: start; writing-mode: tb; letter-spacing: -0.1em;">曽川</text><text x="910" y="660.0283963286057" fill="#000000" transform="matrix(1,0,0,1,0,0)" style="font-size: 18px; font-family: Roboto, Arial, sans-serif; font-weight: 900; text-anchor: start; writing-mode: tb; letter-spacing: -0.1em;">西碧音</text><text x="946.0000000000082" y="660.0283963286057" fill="#000000" transform="matrix(1,0,0,1,0,0)" style="font-size: 18px; font-family: Roboto, Arial, sans-serif; font-weight: 900; text-anchor: start; writing-mode: tb; letter-spacing: -0.1em;">薩磐碧音</text><text x="981.9999999999959" y="660.0283963286057" fill="#000000" transform="matrix(1,0,0,1,0,0)" style="font-size: 18px; font-family: Roboto, Arial, sans-serif; font-weight: 900; text-anchor: start; writing-mode: tb; letter-spacing: -0.1em;">東碧音</text><text x="1018.0000000000041" y="660.0283963286057" fill="#000000" transform="matrix(1,0,0,1,0,0)" style="font-size: 18px; font-family: Roboto, Arial, sans-serif; font-weight: 900; text-anchor: start; writing-mode: tb; letter-spacing: -0.1em;">訊野</text><text x="1054.0000000000123" y="660.0283963286057" fill="#000000" transform="matrix(1,0,0,1,0,0)" style="font-size: 18px; font-family: Roboto, Arial, sans-serif; font-weight: 900; text-anchor: start; writing-mode: tb; letter-spacing: -0.1em;">三津並</text><text x="1090" y="660.0283963286057" fill="#000000" transform="matrix(1,0,0,1,0,0)" style="font-size: 18px; font-family: Roboto, Arial, sans-serif; font-weight: 900; text-anchor: start; writing-mode: tb; letter-spacing: -0.1em;">徳居</text><text x="1126.0000000000082" y="660.0283963286057" fill="#000000" transform="matrix(1,0,0,1,0,0)" style="font-size: 18px; font-family: Roboto, Arial, sans-serif; font-weight: 900; text-anchor: start; writing-mode: tb; letter-spacing: -0.1em;">得居坂上</text><text x="1161.999999999996" y="660.0283963286057" fill="#000000" transform="matrix(1,0,0,1,0,0)" style="font-size: 18px; font-family: Roboto, Arial, sans-serif; font-weight: 900; text-anchor: start; writing-mode: tb; letter-spacing: -0.1em;">読込</text><text x="404.0000000000123" y="862.0397548600478" fill="#000000" transform="matrix(1,0,0,1,0,0)" style="font-size: 18px; font-family: Roboto, Arial, sans-serif; font-weight: 900; text-anchor: end; letter-spacing: 0em;">薩磐短神</text><text x="404.0000000000123" y="826.037861771474" fill="#000000" transform="matrix(1,0,0,1,0,0)" style="font-size: 18px; font-family: Roboto, Arial, sans-serif; font-weight: 900; text-anchor: end; letter-spacing: 0em;">短神公園</text><text x="404.0000000000123" y="790.0359686829004" fill="#000000" transform="matrix(1,0,0,1,0,0)" style="font-size: 18px; font-family: Roboto, Arial, sans-serif; font-weight: 900; text-anchor: end; letter-spacing: 0em;">北短神</text><text x="404.0000000000123" y="754.0340755943267" fill="#000000" transform="matrix(1,0,0,1,0,0)" style="font-size: 18px; font-family: Roboto, Arial, sans-serif; font-weight: 900; text-anchor: end; letter-spacing: 0em;">尾井</text><text x="404.0000000000123" y="718.0321825057531" fill="#000000" transform="matrix(1,0,0,1,0,0)" style="font-size: 18px; font-family: Roboto, Arial, sans-serif; font-weight: 900; text-anchor: end; letter-spacing: 0em;">剋奈親長</text><text x="404.0000000000123" y="682.0302894171792" fill="#000000" transform="matrix(1,0,0,1,0,0)" style="font-size: 18px; font-family: Roboto, Arial, sans-serif; font-weight: 900; text-anchor: end; letter-spacing: 0em;">青崎</text><text x="404.0000000000123" y="646.0283963286057" fill="#000000" transform="matrix(1,0,0,1,0,0)" style="font-size: 18px; font-family: Roboto, Arial, sans-serif; font-weight: 900; text-anchor: end; letter-spacing: 0em;">静海町</text><text x="404.0000000000123" y="610.0265032400318" fill="#000000" transform="matrix(1,0,0,1,0,0)" style="font-size: 18px; font-family: Roboto, Arial, sans-serif; font-weight: 900; text-anchor: end; letter-spacing: 0em;">御鐵乃吉</text><text x="404.0000000000123" y="574.0246101514583" fill="#000000" transform="matrix(1,0,0,1,0,0)" style="font-size: 18px; font-family: Roboto, Arial, sans-serif; font-weight: 900; text-anchor: end; letter-spacing: 0em;">衝御</text><text x="404.0000000000123" y="538.0227170628846" fill="#000000" transform="matrix(1,0,0,1,0,0)" style="font-size: 18px; font-family: Roboto, Arial, sans-serif; font-weight: 900; text-anchor: end; letter-spacing: 0em;">霙衝御</text><text x="404.0000000000123" y="502.0208239743108" fill="#000000" transform="matrix(1,0,0,1,0,0)" style="font-size: 18px; font-family: Roboto, Arial, sans-serif; font-weight: 900; text-anchor: end; letter-spacing: 0em;">唐企</text><text x="404.0000000000123" y="466.01893088573706" fill="#000000" transform="matrix(1,0,0,1,0,0)" style="font-size: 18px; font-family: Roboto, Arial, sans-serif; font-weight: 900; text-anchor: end; letter-spacing: 0em;">小名羅</text><text x="404.0000000000123" y="430.01703779716337" fill="#000000" transform="matrix(1,0,0,1,0,0)" style="font-size: 18px; font-family: Roboto, Arial, sans-serif; font-weight: 900; text-anchor: end; letter-spacing: 0em;">野々熊</text><text x="404.0000000000123" y="394.01514470858973" fill="#000000" transform="matrix(1,0,0,1,0,0)" style="font-size: 18px; font-family: Roboto, Arial, sans-serif; font-weight: 900; text-anchor: end; letter-spacing: 0em;">大野暗渠</text><text x="404.0000000000123" y="358.013251620016" fill="#000000" transform="matrix(1,0,0,1,0,0)" style="font-size: 18px; font-family: Roboto, Arial, sans-serif; font-weight: 900; text-anchor: end; letter-spacing: 0em;">張塚</text><text x="404.0000000000123" y="322.0113585314423" fill="#000000" transform="matrix(1,0,0,1,0,0)" style="font-size: 18px; font-family: Roboto, Arial, sans-serif; font-weight: 900; text-anchor: end; letter-spacing: 0em;">北張塚</text><text x="404.0000000000123" y="286.00946544286853" fill="#000000" transform="matrix(1,0,0,1,0,0)" style="font-size: 18px; font-family: Roboto, Arial, sans-serif; font-weight: 900; text-anchor: end; letter-spacing: 0em;">剋奈新田</text><text x="404.0000000000123" y="250.00757235429492" fill="#000000" transform="matrix(1,0,0,1,0,0)" style="font-size: 18px; font-family: Roboto, Arial, sans-serif; font-weight: 900; text-anchor: end; letter-spacing: 0em;">新田北</text><text x="404.0000000000123" y="214.0056792657212" fill="#000000" transform="matrix(1,0,0,1,0,0)" style="font-size: 18px; font-family: Roboto, Arial, sans-serif; font-weight: 900; text-anchor: end; letter-spacing: 0em;">瑠那仰葉大</text><text x="404.0000000000123" y="178.00378617714745" fill="#000000" transform="matrix(1,0,0,1,0,0)" style="font-size: 18px; font-family: Roboto, Arial, sans-serif; font-weight: 900; text-anchor: end; letter-spacing: 0em;">瑠那</text><text x="404.0000000000123" y="142.00189308857372" fill="#000000" transform="matrix(1,0,0,1,0,0)" style="font-size: 18px; font-family: Roboto, Arial, sans-serif; font-weight: 900; text-anchor: end; letter-spacing: 0em;">折大</text><text x="404.0000000000123" y="106" fill="#000000" transform="matrix(1,0,0,1,0,0)" style="font-size: 18px; font-family: Roboto, Arial, sans-serif; font-weight: 900; text-anchor: end; letter-spacing: 0em;">木深</text></svg>